<svg width="30" height="30" viewBox="0 0 30 30" fill="none" xmlns="http://www.w3.org/2000/svg">
<circle cx="15" cy="15" r="15" fill="#1A2C42"/>
<path fill-rule="evenodd" clip-rule="evenodd" d="M15 24C16.1819 24 17.3522 23.7672 18.4442 23.3149C19.5361 22.8626 20.5282 22.1997 21.364 21.364C22.1997 20.5282 22.8626 19.5361 23.3149 18.4442C23.7672 17.3522 24 16.1819 24 15C24 13.8181 23.7672 12.6478 23.3149 11.5558C22.8626 10.4639 22.1997 9.47177 21.364 8.63604C20.5282 7.80031 19.5361 7.13738 18.4442 6.68508C17.3522 6.23279 16.1819 6 15 6C12.6131 6 10.3239 6.94821 8.63604 8.63604C6.94821 10.3239 6 12.6131 6 15C6 17.3869 6.94821 19.6761 8.63604 21.364C10.3239 23.0518 12.6131 24 15 24ZM14.768 18.64L19.768 12.64L18.232 11.36L13.932 16.519L11.707 14.293L10.293 15.707L13.293 18.707L14.067 19.481L14.768 18.64Z" fill="#FAD355"/>
</svg>
